HIERARCHY
ROOT Hips
{
 OFFSET 0.000000 0.000000 0.000000
 CHANNELS 6 Xposition Yposition Zposition Yrotation Xrotation Zrotation
 JOINT Chest
 {
  OFFSET 0.000000 9.585900 0.002600
  CHANNELS 3 Yrotation Xrotation Zrotation
  JOINT Chest2
  {
   OFFSET 0.000000 9.601200 -0.005300
   CHANNELS 3 Yrotation Xrotation Zrotation
   JOINT Chest3
   {
    OFFSET 0.000000 9.561800 0.000000
    CHANNELS 3 Yrotation Xrotation Zrotation
    JOINT Chest4
    {
     OFFSET 0.000000 9.552100 0.000000
     CHANNELS 3 Yrotation Xrotation Zrotation
     JOINT Neck
     {
      OFFSET 0.000000 14.453000 0.000000
      CHANNELS 3 Yrotation Xrotation Zrotation
      JOINT Head
      {
       OFFSET 0.000000 8.936500 -0.011300
       CHANNELS 3 Yrotation Xrotation Zrotation
       End Site
       {
        OFFSET 0.000000 17.073600 -0.006000
       }
      }
     }
     JOINT RightCollar
     {
      OFFSET -2.921100 9.558500 0.000000
      CHANNELS 3 Yrotation Xrotation Zrotation
      JOINT RightShoulder
      {
       OFFSET -13.519700 0.000000 0.000000
       CHANNELS 3 Yrotation Xrotation Zrotation
       JOINT RightElbow
       {
        OFFSET 0.000000 -29.696600 0.000000
        CHANNELS 3 Yrotation Xrotation Zrotation
        JOINT RightWrist
        {
         OFFSET 0.000000 -24.004700 0.000000
         CHANNELS 3 Yrotation Xrotation Zrotation
         End Site
         {
          OFFSET 0.000000 -17.728500 0.000000
         }
        }
       }
      }
     }
     JOINT LeftCollar
     {
      OFFSET 2.921100 9.558500 0.000000
      CHANNELS 3 Yrotation Xrotation Zrotation
      JOINT LeftShoulder
      {
       OFFSET 13.519700 0.000000 0.000000
       CHANNELS 3 Yrotation Xrotation Zrotation
       JOINT LeftElbow
       {
        OFFSET 0.000000 -29.696600 0.000000
        CHANNELS 3 Yrotation Xrotation Zrotation
        JOINT LeftWrist
        {
         OFFSET 0.000000 -24.004700 0.000000
         CHANNELS 3 Yrotation Xrotation Zrotation
         End Site
         {
          OFFSET 0.000000 -17.728500 0.000000
         }
        }
       }
      }
     }
    }
   }
  }
 }
 JOINT RightHip
 {
  OFFSET -7.771700 -0.012900 -0.001300
  CHANNELS 3 Yrotation Xrotation Zrotation
  JOINT RightKnee
  {
   OFFSET 0.000000 -40.869800 0.001200
   CHANNELS 3 Yrotation Xrotation Zrotation
   JOINT RightAnkle
   {
    OFFSET 0.000000 -39.717900 0.002100
    CHANNELS 3 Yrotation Xrotation Zrotation
    JOINT RightToe
    {
     OFFSET 0.000000 -4.965400 11.033500
     CHANNELS 3 Yrotation Xrotation Zrotation
     End Site
     {
      OFFSET 0.000000 -1.423100 5.872300
     }
    }
   }
  }
 }
 JOINT LeftHip
 {
  OFFSET 7.771700 -0.012900 -0.001300
  CHANNELS 3 Yrotation Xrotation Zrotation
  JOINT LeftKnee
  {
   OFFSET 0.000000 -40.869800 0.001200
   CHANNELS 3 Yrotation Xrotation Zrotation
   JOINT LeftAnkle
   {
    OFFSET 0.000000 -39.717900 0.002100
    CHANNELS 3 Yrotation Xrotation Zrotation
    JOINT LeftToe
    {
     OFFSET 0.000000 -4.965400 11.033500
     CHANNELS 3 Yrotation Xrotation Zrotation
     End Site
     {
      OFFSET 0.000000 -1.423100 5.872300
     }
    }
   }
  }
 }
}
MOTION
Frames: 15
Frame Time: 0.008333
0.000000 85.388000 0.000000 0.000000 -5.767877 0.000000 0.000000 11.653817 0.000000 0.000000 -5.885947 0.000000 0.000000 -0.000000 0.000000 0.000000 -0.000000 0.000000 0.000000 12.528835 0.000000 0.000000 0.711642 0.000000 0.000000 -0.000000 0.000000 0.000000 0.000000 -90.000000 0.000000 -2.309062 0.000000 0.000000 2.309062 0.000000 0.000000 -0.000000 0.000000 0.000000 -0.000000 90.000000 0.000000 -2.309062 0.000000 0.000000 2.309062 0.000000 0.000000 8.520406 0.000000 0.000000 1.905762 0.000000 -0.000000 -4.658285 0.000000 0.000000 -0.000000 0.000000 0.000000 8.520406 0.000000 0.000000 1.905762 0.000000 -0.000000 -4.658285 0.000000 0.000000 -0.000000 0.000000
-72.840523 63.412683 11.589105 174.022964 -50.653192 -3.782116 8.533577 24.985078 2.714360 1.341854 4.192207 0.020334 2.094840 6.604682 0.081985 6.796764 20.519796 1.099516 -0.116661 17.460081 3.048285 -1.223705 -3.265676 5.704927 11.764459 5.730295 9.172404 -5.421280 -35.943560 -12.563393 -64.030594 -19.363197 77.384416 -14.833370 -17.132677 -5.306922 -9.127724 4.364282 -0.245698 -2.163840 -25.875353 16.419137 55.372674 -33.394777 -84.911292 33.261341 -14.576257 1.083708 -5.850191 -9.239778 8.024013 -41.741903 70.712863 -45.466023 -1.115143 -14.576691 4.109416 -0.522182 0.819176 -0.183441 -0.477901 -14.584860 -3.512970 12.102347 59.994463 3.490207 -5.548226 -6.415938 1.249466 -0.035937 -0.235675 -0.016589
-72.830280 63.406569 11.576818 174.023243 -50.624100 -3.785004 8.560574 24.995774 2.728041 1.330202 4.171189 0.013186 2.093575 6.588764 0.080147 6.779038 20.463723 1.053171 0.043243 17.458691 3.122323 -0.967618 -3.317363 5.745536 11.758216 5.693306 9.200540 -5.404466 -36.010983 -12.710150 -64.244302 -19.865667 77.633037 -14.789525 -17.013782 -5.239527 -9.126351 4.375209 -0.202636 -2.248887 -25.997073 16.451365 55.538769 -33.576235 -85.052890 33.234139 -14.522805 1.018233 -5.850334 -9.269771 8.027777 -41.778347 70.728034 -45.495281 -1.097342 -14.596052 4.103348 -0.539913 0.818160 -0.187521 -0.521181 -14.631507 -3.493123 12.075047 60.038742 3.435745 -5.515336 -6.423350 1.254148 -0.039458 -0.236307 -0.021385
-72.823107 63.394923 11.566143 174.055800 -50.556599 -3.787713 8.534995 24.966470 2.693128 1.325669 4.146530 0.016553 2.100035 6.571720 0.061894 6.773155 20.454418 1.063199 0.182142 17.422401 3.157605 -0.718403 -3.361095 5.790693 11.739224 5.626869 9.185098 -5.389327 -36.072711 -12.860721 -64.434918 -20.360302 77.879486 -14.744656 -16.875150 -5.179534 -9.174825 4.231492 -0.199350 -2.296901 -26.004668 16.491262 55.694413 -33.707026 -85.206593 33.213767 -14.475842 0.956080 -5.877626 -9.341867 8.002496 -41.830828 70.760416 -45.537816 -1.082624 -14.645344 4.090277 -0.553375 0.828415 -0.199429 -0.605808 -14.720971 -3.490750 12.083137 60.079810 3.384554 -5.490733 -6.430280 1.258500 -0.046444 -0.233481 -0.020816
-72.815627 63.383602 11.554087 174.102294 -50.494920 -3.796659 8.510851 24.940666 2.669013 1.312261 4.124412 0.012399 2.097016 6.556834 0.050038 6.770610 20.444693 1.063119 0.315198 17.389190 3.193604 -0.478253 -3.399958 5.838884 11.716954 5.563295 9.170030 -5.372024 -36.129533 -13.015598 -64.602621 -20.845487 78.121852 -14.699774 -16.726504 -5.116569 -9.195598 4.182315 -0.192365 -2.376502 -26.105247 16.539121 55.835149 -33.795053 -85.368590 33.197950 -14.436232 0.903406 -5.909338 -9.405989 7.979254 -41.893047 70.787369 -45.588744 -1.094721 -14.692442 4.073387 -0.544269 0.839083 -0.199814 -0.654760 -14.804648 -3.505732 12.056380 60.123939 3.346743 -5.485321 -6.427542 1.266818 -0.031262 -0.250459 -0.030390
-72.810273 63.374375 11.539851 174.145987 -50.453528 -3.786319 8.469335 24.931556 2.609215 1.310258 4.111523 0.009919 2.094489 6.538375 0.051039 6.767765 20.418647 1.044076 0.450028 17.376170 3.249875 -0.247002 -3.436223 5.886779 11.710687 5.551293 9.191394 -5.353692 -36.217001 -13.185597 -64.749340 -21.316157 78.365439 -14.651681 -16.575920 -5.044274 -9.232844 4.112326 -0.178149 -2.445892 -26.161790 16.596941 55.963449 -33.852005 -85.531231 33.191875 -14.400918 0.856896 -5.938499 -9.455255 7.930640 -42.010441 70.824355 -45.684112 -1.104575 -14.750681 4.042351 -0.521021 0.844800 -0.191770 -0.719877 -14.863435 -3.540670 12.060431 60.158146 3.314822 -5.450078 -6.423621 1.286318 -0.028290 -0.253484 -0.041368
-72.800396 63.362197 11.529892 174.165400 -50.390296 -3.785787 8.461033 24.892535 2.589901 1.306775 4.100128 0.007326 2.080155 6.522763 0.043003 6.768520 20.395985 1.031469 0.577035 17.363354 3.300116 -0.020851 -3.471006 5.933659 11.703042 5.538624 9.205225 -5.329763 -36.291727 -13.358322 -64.883694 -21.761375 78.616052 -14.595322 -16.428990 -4.966314 -9.270610 4.043674 -0.174498 -2.525548 -26.218477 16.663005 56.078380 -33.889959 -85.686721 33.192258 -14.369087 0.811043 -5.964452 -9.527591 7.913387 -42.070945 70.849871 -45.737746 -1.085302 -14.778116 4.027535 -0.529239 0.841621 -0.200821 -0.779105 -14.950711 -3.537593 12.079622 60.202387 3.296954 -5.449193 -6.422307 1.303603 -0.034093 -0.243049 -0.045956
-72.787814 63.352312 11.520072 174.171033 -50.345336 -3.791439 8.453065 24.867925 2.575941 1.305153 4.090000 0.004926 2.078418 6.507314 0.041073 6.751452 20.357360 0.991731 0.725993 17.369365 3.372933 0.203591 -3.506047 5.980745 11.677121 5.464465 9.201636 -5.289406 -36.269031 -13.498582 -65.012809 -22.177347 78.874903 -14.531833 -16.282985 -4.885215 -9.279073 4.023628 -0.153325 -2.619979 -26.297530 16.731970 56.178847 -33.921048 -85.832633 33.185840 -14.334408 0.769776 -5.976892 -9.575251 7.917829 -42.130983 70.863095 -45.786210 -1.076532 -14.812684 4.010355 -0.529740 0.850900 -0.204576 -0.832240 -15.017665 -3.516083 12.095715 60.247687 3.278244 -5.447333 -6.424769 1.318739 -0.027736 -0.253878 -0.060181
-72.776250 63.342427 11.512005 174.179565 -50.299876 -3.796207 8.448424 24.837592 2.566521 1.298252 4.089485 -0.006126 2.077667 6.490666 0.048653 6.741218 20.345334 0.973151 0.855951 17.350125 3.422421 0.425873 -3.545970 6.028665 11.646645 5.411210 9.184679 -5.235419 -36.277230 -13.652573 -65.133801 -22.565330 79.141754 -14.464249 -16.130120 -4.801372 -9.303190 3.981689 -0.153977 -2.720155 -26.378402 16.805154 56.270576 -33.957394 -85.962197 33.168720 -14.277818 0.738521 -6.000113 -9.626893 7.917928 -42.184604 70.878319 -45.836908 -1.063226 -14.831697 3.997511 -0.532456 0.847528 -0.211977 -0.910376 -15.087059 -3.499557 12.145819 60.288832 3.273726 -5.425647 -6.422227 1.338171 -0.025919 -0.256610 -0.070958
-72.765508 63.333045 11.505416 174.153051 -50.259004 -3.772898 8.458406 24.826057 2.547407 1.299743 4.064182 -0.000346 2.073326 6.484595 0.043946 6.741192 20.341297 0.968346 0.974450 17.326052 3.462343 0.644319 -3.594086 6.076447 11.613815 5.372557 9.163627 -5.180550 -36.293613 -13.808801 -65.240001 -22.923848 79.415614 -14.392598 -15.964059 -4.719151 -9.338713 3.939609 -0.164972 -2.828952 -26.460830 16.882238 56.351401 -34.008304 -86.064501 33.142504 -14.195479 0.716061 -6.016954 -9.680349 7.907988 -42.211837 70.903555 -45.872470 -1.026574 -14.842603 3.987583 -0.557517 0.836217 -0.229555 -0.904485 -15.145813 -3.502249 12.064294 60.325340 3.214931 -5.391687 -6.416398 1.351624 -0.024380 -0.257562 -0.080808
-72.757399 63.322218 11.501733 174.158787 -50.203830 -3.764085 8.441429 24.781656 2.523048 1.302691 4.061710 0.001024 2.071232 6.482510 0.039169 6.735395 20.335609 0.961390 1.090014 17.302040 3.500636 0.859508 -3.650897 6.123986 11.578415 5.338072 9.142050 -5.125526 -36.301879 -13.958537 -65.331084 -23.253621 79.692449 -14.314340 -15.769575 -4.637857 -9.365104 3.911725 -0.170780 -2.956626 -26.549457 16.956438 56.415605 -34.077978 -86.137987 33.104299 -14.098332 0.704291 -6.042829 -9.744165 7.892928 -42.248174 70.920589 -45.906894 -1.017020 -14.867251 3.971632 -0.561950 0.841349 -0.235673 -0.942922 -15.221330 -3.509109 12.073668 60.355502 3.204933 -5.374033 -6.405320 1.377142 -0.033875 -0.238289 -0.074047
-72.747968 63.315915 11.496627 174.145141 -50.181669 -3.751416 8.441498 24.767349 2.510942 1.297616 4.066221 -0.005088 2.070970 6.477505 0.035799 6.735313 20.328962 0.949949 1.213592 17.275415 3.544658 1.072138 -3.716776 6.172249 11.572468 5.317191 9.143469 -5.082396 -36.316808 -14.116245 -65.409160 -23.560914 79.970479 -14.221124 -15.530636 -4.561359 -9.388468 3.881590 -0.175224 -3.094966 -26.622719 17.039456 56.469486 -34.164807 -86.188632 33.052736 -13.984858 0.708768 -6.057912 -9.772844 7.885812 -42.260235 70.935740 -45.923031 -0.999227 -14.874991 3.961974 -0.570966 0.836805 -0.243925 -1.011355 -15.261094 -3.499071 12.155439 60.380876 3.231450 -5.368775 -6.396796 1.399306 -0.059561 -0.230486 -0.080176
-72.739605 63.310441 11.492773 174.130206 -50.162912 -3.736207 8.448515 24.766515 2.502159 1.296105 4.063507 -0.008617 2.068354 6.473750 0.030062 6.715738 20.341193 0.904539 1.356883 17.226631 3.616373 1.279957 -3.791258 6.219391 11.580931 5.270281 9.168740 -5.048059 -36.314983 -14.263677 -65.473171 -23.859805 80.249638 -14.105348 -15.232628 -4.503047 -9.397369 3.837805 -0.150141 -3.245187 -26.682514 17.125935 56.518241 -34.260384 -86.220140 32.987878 -13.849116 0.728434 -6.071776 -9.796258 7.878494 -42.246730 70.948231 -45.923651 -0.974376 -14.879480 3.963267 -0.601577 0.830501 -0.261187 -1.018877 -15.298667 -3.499861 12.130263 60.411777 3.217548 -5.400091 -6.364896 1.446961 -0.027598 -0.255618 -0.122986
-72.731326 63.304981 11.491031 174.116742 -50.140223 -3.726617 8.450380 24.780393 2.485226 1.295271 4.055850 -0.012333 2.066826 6.479861 0.018500 6.724624 20.320714 0.902592 1.476116 17.184984 3.661621 1.483176 -3.872284 6.263077 11.488688 5.227547 9.136100 -4.964525 -36.271217 -14.362424 -65.524590 -24.169407 80.526375 -13.962678 -14.865114 -4.479601 -9.398185 3.817661 -0.133991 -3.418736 -26.746341 17.195548 56.556656 -34.355657 -86.235062 32.909780 -13.692403 0.756659 -6.086902 -9.823648 7.876102 -42.257444 70.958670 -45.934531 -0.966938 -14.892660 3.946523 -0.600290 0.833357 -0.262698 -1.028275 -15.332657 -3.499691 12.100927 60.432041 3.194663 -5.379403 -6.358353 1.467715 -0.027340 -0.266672 -0.149056
-72.722004 63.299937 11.491253 174.117782 -50.115281 -3.738707 8.450855 24.773205 2.489559 1.297915 4.047095 -0.011291 2.063433 6.487025 0.010916 6.722545 20.319860 0.888607 1.595625 17.141243 3.704761 1.687607 -3.957155 6.302796 11.440183 5.208927 9.129265 -4.913139 -36.239049 -14.468082 -65.568295 -24.507048 80.798481 -13.786854 -14.427090 -4.505182 -9.431482 3.791144 -0.138195 -3.573500 -26.783531 17.284509 56.579446 -34.445866 -86.234952 32.823807 -13.523841 0.781865 -6.107740 -9.850379 7.884245 -42.287231 70.958828 -45.943084 -0.983930 -14.904465 3.906953 -0.562566 0.838764 -0.246754 -1.087439 -15.374119 -3.488104 12.126094 60.453327 3.204621 -5.354166 -6.355674 1.467806 -0.007108 -0.259714 -0.142656
